<svg version="1.1" xmlns="http://www.w3.org/2000/svg" xmlns:xlink="http://www.w3.org/1999/xlink" width="75.95454" height="73.10624" viewBox="0,0,75.95454,73.10624"><g transform="translate(-202.02273,-143.44688)"><g stroke-miterlimit="10"><path d="M202.02273,216.55312v-73.10624h75.95454v73.10624z" fill="none" stroke="none" stroke-width="none"/><g fill="#fff2f2" stroke="#d9ab48" stroke-width="3.5"><path d="M245.0515,191.61506c0,9.5535 -7.73794,17.29814 -17.28317,17.29814c-9.54523,0 -17.28317,-7.74464 -17.28317,-17.29814c0,-9.5535 7.73794,-17.29815 17.28318,-17.29815c9.54523,0 17.28318,7.74464 17.28318,17.29815z"/><path d="M248.88019,168.38495c0,9.5535 -7.73794,17.29815 -17.28317,17.29815c-9.54523,0 -17.28317,-7.74464 -17.28317,-17.29815c0,-9.5535 7.73794,-17.29814 17.28318,-17.29814c9.54523,0 17.28318,7.74464 17.28318,17.29814z"/><path d="M269.51485,188.07017c0,9.5535 -7.73794,17.29814 -17.28317,17.29814c-9.54524,0 -17.28318,-7.74464 -17.28318,-17.29814c0,-9.5535 7.73794,-17.29814 17.28318,-17.29814c9.54523,0 17.28317,7.74464 17.28317,17.29814z"/></g></g></g></svg>